<svg xmlns="http://www.w3.org/2000/svg" viewBox="0 0 446 860" role="img" aria-label="Female muscle map front">
  <title>Female muscle map front</title>
  <g id="female-muscle-map-front" fill="#242424" stroke="#111111" stroke-width="1.5" stroke-linejoin="round">
  <path d="M 218,12 L 195,28 L 191,66 L 233,43 L 271,63 L 271,85 L 257,118 L 231,131 L 207,111 L 194,73 L 218,128 L 216,152 L 135,175 L 117,191 L 105,469 L 126,495 L 131,475 L 149,493 L 171,590 L 169,661 L 187,772 L 172,827 L 218,832 L 218,775 L 225,782 L 234,772 L 251,797 L 247,829 L 274,835 L 297,827 L 282,772 L 298,686 L 306,523 L 323,476 L 340,475 L 343,495 L 364,467 L 354,195 L 335,173 L 258,156 L 253,127 L 274,93 L 282,44 L 258,12 Z" />
  <path d="M 222,131 L 233,134 L 242,133 L 244,131 L 251,132 L 251,148 L 257,158 L 256,160 L 257,159 L 258,161 L 256,164 L 251,164 L 250,172 L 243,172 L 243,177 L 239,177 L 241,179 L 240,180 L 243,181 L 257,181 L 251,182 L 250,184 L 248,183 L 253,184 L 248,187 L 258,187 L 260,192 L 256,195 L 256,197 L 254,197 L 252,195 L 253,194 L 251,195 L 251,197 L 255,198 L 251,199 L 252,200 L 250,203 L 248,202 L 247,204 L 242,204 L 242,202 L 240,202 L 239,204 L 237,204 L 236,201 L 234,204 L 229,204 L 227,202 L 226,205 L 222,202 L 219,203 L 218,200 L 217,202 L 216,201 L 217,197 L 215,200 L 210,196 L 212,195 L 207,189 L 205,191 L 203,189 L 205,187 L 210,187 L 210,184 L 207,184 L 209,181 L 203,182 L 203,179 L 227,179 L 222,174 L 224,173 L 226,175 L 226,172 L 219,172 L 216,169 L 214,171 L 210,167 L 210,161 L 212,161 L 211,160 L 218,153 L 220,146 L 220,134 Z" />
  <path d="M 194,771 L 203,771 L 204,773 L 204,772 L 206,771 L 208,773 L 209,772 L 211,773 L 211,787 L 212,789 L 212,787 L 213,786 L 214,787 L 214,794 L 215,795 L 214,797 L 213,796 L 213,798 L 215,800 L 214,802 L 214,808 L 215,809 L 215,813 L 217,817 L 217,819 L 216,820 L 212,820 L 211,819 L 207,819 L 206,818 L 188,818 L 184,820 L 179,820 L 178,821 L 176,821 L 175,820 L 178,814 L 180,812 L 182,807 L 184,805 L 184,803 L 187,799 L 187,795 L 189,792 L 189,788 L 191,787 L 192,785 L 193,787 L 194,787 L 194,780 L 192,779 L 192,778 L 194,777 L 194,773 L 193,772 Z" />
  <path d="M 261,779 L 266,779 L 268,777 L 271,777 L 272,775 L 275,778 L 275,787 L 276,788 L 275,789 L 277,786 L 278,787 L 278,792 L 278,788 L 279,787 L 280,788 L 280,795 L 282,798 L 282,801 L 285,805 L 287,810 L 292,816 L 293,818 L 293,820 L 292,821 L 290,820 L 288,820 L 287,819 L 284,819 L 283,818 L 276,818 L 275,817 L 267,817 L 266,818 L 261,818 L 260,819 L 257,819 L 256,820 L 251,820 L 250,819 L 250,816 L 251,815 L 251,810 L 252,809 L 252,804 L 253,803 L 253,788 L 254,787 L 255,788 L 255,794 L 256,792 L 255,791 L 258,788 L 258,782 Z" />
  <path d="M 355,435 L 356,436 L 355,437 L 356,438 L 355,439 L 356,438 L 357,439 L 357,440 L 357,439 L 358,438 L 359,439 L 359,443 L 358,444 L 358,446 L 358,444 L 359,443 L 360,444 L 360,449 L 361,450 L 361,454 L 362,455 L 362,462 L 361,463 L 361,467 L 360,468 L 360,471 L 359,472 L 359,474 L 358,475 L 357,478 L 355,480 L 355,481 L 347,489 L 346,489 L 345,490 L 344,489 L 344,487 L 343,486 L 343,481 L 344,480 L 344,478 L 345,477 L 345,475 L 346,474 L 346,471 L 347,470 L 347,466 L 348,465 L 348,462 L 349,461 L 349,459 L 350,458 L 351,459 L 351,460 L 352,459 L 352,458 L 353,457 L 354,457 L 353,456 L 354,455 L 353,454 L 354,453 L 354,452 L 347,452 L 345,450 L 345,449 L 347,447 L 346,446 L 346,445 L 347,444 L 348,444 L 349,443 L 352,443 L 351,442 L 353,440 L 352,440 L 350,438 L 351,437 L 353,437 L 352,437 L 351,436 L 352,435 Z" />
  <path d="M 112,437 L 114,439 L 114,440 L 114,438 L 115,437 L 118,439 L 117,440 L 118,441 L 117,442 L 117,443 L 122,443 L 123,444 L 123,448 L 122,449 L 123,450 L 123,451 L 122,452 L 121,451 L 120,451 L 120,455 L 119,456 L 118,455 L 118,452 L 118,457 L 119,458 L 119,459 L 120,459 L 121,460 L 121,464 L 122,465 L 122,470 L 123,471 L 123,474 L 124,475 L 124,479 L 125,480 L 125,483 L 123,485 L 122,484 L 120,484 L 119,485 L 113,479 L 112,476 L 110,474 L 110,472 L 109,471 L 109,469 L 108,468 L 108,466 L 107,465 L 107,455 L 108,454 L 108,449 L 109,448 L 109,444 L 110,443 L 110,440 Z" />
  <path d="M 249,826 L 252,823 L 253,823 L 254,822 L 256,822 L 257,821 L 261,821 L 262,820 L 282,820 L 283,821 L 286,821 L 287,822 L 290,822 L 291,823 L 292,823 L 294,825 L 294,826 L 292,828 L 291,828 L 289,830 L 288,830 L 287,831 L 284,831 L 283,832 L 277,832 L 276,833 L 275,833 L 274,832 L 273,833 L 266,833 L 265,832 L 258,832 L 257,831 L 255,831 L 254,830 L 253,830 L 252,829 L 251,829 L 250,828 L 250,827 Z" />
  <path d="M 174,826 L 176,824 L 177,824 L 178,823 L 180,823 L 181,822 L 183,822 L 184,821 L 188,821 L 189,820 L 205,820 L 206,821 L 210,821 L 211,822 L 213,822 L 214,823 L 215,823 L 216,824 L 217,824 L 219,826 L 219,828 L 217,830 L 216,830 L 215,831 L 212,831 L 211,832 L 205,832 L 204,833 L 203,833 L 202,832 L 197,832 L 196,833 L 195,832 L 194,833 L 193,832 L 185,832 L 184,831 L 182,831 L 181,830 L 179,830 L 177,828 L 176,828 Z" />
  </g>
</svg>