<svg xmlns="http://www.w3.org/2000/svg" viewBox="0 0 446 860" role="img" aria-label="Female muscle map back">
  <title>Female muscle map back</title>
  <g id="female-muscle-map-back" fill="#242424" stroke="#111111" stroke-width="1.5" stroke-linejoin="round">
  <path d="M 235,12 L 180,20 L 170,47 L 173,69 L 180,51 L 244,52 L 248,82 L 232,120 L 193,123 L 171,73 L 188,139 L 137,171 L 95,176 L 80,202 L 83,468 L 104,495 L 116,469 L 132,492 L 163,769 L 148,826 L 162,834 L 198,827 L 196,737 L 228,773 L 223,828 L 274,827 L 259,772 L 286,535 L 302,484 L 318,495 L 339,465 L 339,188 L 235,140 L 259,49 Z" />
  <path d="M 93,227 L 104,227 L 109,230 L 108,235 L 116,235 L 117,236 L 116,238 L 118,237 L 119,238 L 118,240 L 116,240 L 116,243 L 117,244 L 118,242 L 120,245 L 120,247 L 118,248 L 120,249 L 119,254 L 121,256 L 120,257 L 121,258 L 119,259 L 121,260 L 121,262 L 121,236 L 122,235 L 123,236 L 123,279 L 122,280 L 121,279 L 122,280 L 120,281 L 121,282 L 120,283 L 121,282 L 122,285 L 124,286 L 121,288 L 121,289 L 122,288 L 123,289 L 123,291 L 116,293 L 118,295 L 117,296 L 119,297 L 116,300 L 117,302 L 116,306 L 107,309 L 106,308 L 107,311 L 104,314 L 103,313 L 104,310 L 101,314 L 99,313 L 100,308 L 96,309 L 96,311 L 94,313 L 92,313 L 91,312 L 94,310 L 92,310 L 89,307 L 89,305 L 88,307 L 87,306 L 86,301 L 87,290 L 86,289 L 85,241 L 87,236 L 91,235 L 91,230 Z" />
  <path d="M 327,226 L 332,232 L 335,240 L 334,307 L 333,308 L 332,307 L 332,309 L 330,311 L 325,308 L 318,308 L 316,306 L 315,308 L 311,306 L 313,304 L 312,303 L 311,304 L 309,303 L 304,297 L 306,294 L 304,292 L 307,290 L 306,291 L 304,290 L 305,289 L 304,288 L 306,285 L 303,287 L 302,286 L 303,285 L 302,283 L 305,278 L 303,280 L 301,279 L 303,277 L 301,276 L 303,275 L 302,275 L 301,273 L 303,272 L 300,272 L 299,271 L 301,270 L 300,269 L 301,268 L 299,266 L 299,252 L 300,251 L 299,249 L 299,236 L 300,235 L 301,236 L 302,235 L 310,235 L 311,234 L 312,235 L 315,235 L 315,234 L 314,235 L 311,234 L 311,233 L 313,232 L 312,230 L 317,227 L 326,227 Z" />
  <path d="M 331,342 L 333,350 L 333,366 L 334,367 L 333,372 L 332,369 L 332,395 L 334,399 L 332,408 L 333,411 L 332,427 L 330,433 L 326,429 L 324,430 L 323,436 L 316,436 L 315,435 L 316,434 L 319,434 L 320,432 L 321,433 L 321,432 L 319,433 L 318,432 L 319,430 L 317,428 L 321,427 L 316,426 L 317,424 L 315,423 L 318,422 L 317,419 L 315,418 L 315,412 L 311,410 L 313,409 L 313,407 L 310,406 L 312,405 L 309,404 L 313,403 L 314,405 L 314,403 L 311,402 L 313,399 L 312,400 L 309,399 L 309,396 L 311,394 L 312,395 L 309,394 L 311,392 L 308,389 L 309,387 L 308,388 L 307,387 L 307,384 L 309,382 L 308,383 L 307,382 L 307,368 L 306,369 L 305,368 L 306,363 L 304,360 L 306,357 L 303,360 L 301,356 L 302,355 L 304,356 L 306,354 L 307,355 L 307,353 L 304,355 L 303,353 L 306,351 L 305,350 L 306,349 L 309,350 L 308,349 L 309,347 L 321,347 L 319,345 L 322,344 L 324,346 L 323,347 L 326,348 L 324,346 L 325,345 L 329,346 Z" />
  <path d="M 102,345 L 103,347 L 112,347 L 114,349 L 113,352 L 118,352 L 119,356 L 122,356 L 119,358 L 122,360 L 122,356 L 123,355 L 124,357 L 125,355 L 126,358 L 122,362 L 122,364 L 124,362 L 125,363 L 125,368 L 120,369 L 116,364 L 116,369 L 118,368 L 119,371 L 114,373 L 116,374 L 114,375 L 115,376 L 112,382 L 109,380 L 109,383 L 111,385 L 109,387 L 110,386 L 113,388 L 109,393 L 115,392 L 116,394 L 108,397 L 110,397 L 108,401 L 108,430 L 106,430 L 106,426 L 105,429 L 103,427 L 105,429 L 101,431 L 100,428 L 98,431 L 96,430 L 97,431 L 93,433 L 95,434 L 92,435 L 91,430 L 90,431 L 88,429 L 87,417 L 88,403 L 90,414 L 90,427 L 91,350 L 93,347 L 97,349 L 99,353 L 97,349 L 100,345 L 101,347 Z" />
  <path d="M 174,771 L 182,771 L 183,772 L 182,773 L 179,773 L 181,774 L 182,773 L 184,775 L 183,776 L 184,775 L 186,779 L 186,777 L 187,776 L 188,777 L 188,781 L 189,782 L 189,787 L 190,788 L 190,795 L 189,796 L 189,801 L 190,802 L 189,803 L 189,805 L 190,806 L 190,809 L 191,810 L 191,812 L 192,813 L 192,815 L 194,819 L 193,821 L 192,820 L 190,820 L 189,819 L 185,819 L 184,818 L 173,818 L 172,817 L 171,818 L 163,818 L 162,819 L 159,819 L 158,820 L 153,820 L 152,819 L 154,815 L 159,809 L 161,804 L 163,803 L 162,801 L 165,797 L 165,784 L 166,783 L 166,779 L 167,778 L 168,779 L 169,778 L 171,780 L 171,774 Z" />
  <path d="M 251,774 L 252,775 L 252,787 L 254,786 L 253,785 L 253,781 L 254,780 L 256,784 L 256,802 L 257,802 L 257,800 L 258,799 L 264,811 L 270,818 L 270,820 L 268,821 L 267,820 L 265,820 L 264,819 L 261,819 L 260,818 L 252,818 L 251,817 L 246,817 L 245,818 L 238,818 L 237,819 L 234,819 L 233,820 L 230,820 L 229,821 L 227,821 L 226,820 L 228,817 L 228,814 L 229,813 L 229,811 L 230,810 L 230,806 L 231,805 L 231,800 L 232,799 L 232,779 L 233,778 L 234,779 L 234,782 L 234,780 L 235,779 L 245,779 L 245,778 L 247,776 L 248,777 Z" />
  <path d="M 92,443 L 99,443 L 102,449 L 100,452 L 100,454 L 103,458 L 103,459 L 102,460 L 99,457 L 98,458 L 98,462 L 99,463 L 98,464 L 99,463 L 100,464 L 100,468 L 102,470 L 102,473 L 101,474 L 100,472 L 101,474 L 101,476 L 100,477 L 101,477 L 101,474 L 102,473 L 103,474 L 103,478 L 102,480 L 103,478 L 104,479 L 104,482 L 105,483 L 105,486 L 106,487 L 106,489 L 105,490 L 103,486 L 102,486 L 102,487 L 100,489 L 98,487 L 101,484 L 100,485 L 99,484 L 100,485 L 98,487 L 96,485 L 97,484 L 96,485 L 92,481 L 90,476 L 87,472 L 87,469 L 86,468 L 86,465 L 85,464 L 85,458 L 86,457 L 86,450 L 87,449 L 87,446 L 88,445 L 89,446 L 89,448 L 89,446 L 90,445 L 91,447 L 91,444 Z" />
  <path d="M 332,443 L 333,444 L 333,446 L 334,447 L 334,451 L 335,452 L 335,461 L 336,462 L 336,465 L 335,466 L 335,470 L 334,471 L 334,473 L 333,474 L 333,475 L 332,476 L 332,477 L 331,478 L 331,479 L 329,481 L 329,482 L 326,485 L 325,485 L 323,483 L 323,482 L 322,482 L 321,481 L 323,479 L 323,477 L 324,476 L 325,476 L 324,476 L 322,473 L 323,472 L 323,467 L 322,466 L 323,465 L 323,458 L 324,457 L 323,456 L 323,454 L 322,453 L 322,450 L 321,449 L 321,447 L 322,446 L 320,444 L 321,443 Z" />
  <path d="M 226,825 L 227,824 L 228,824 L 229,823 L 230,823 L 231,822 L 233,822 L 234,821 L 238,821 L 239,820 L 258,820 L 259,821 L 263,821 L 264,822 L 267,822 L 268,823 L 269,823 L 270,824 L 269,825 L 270,824 L 271,825 L 271,826 L 270,827 L 269,827 L 267,829 L 266,829 L 265,830 L 264,830 L 263,831 L 261,831 L 260,832 L 254,832 L 253,833 L 244,833 L 243,832 L 234,832 L 233,831 L 231,831 L 230,830 L 229,830 L 227,828 L 227,827 L 226,826 Z" />
  <path d="M 151,826 L 154,823 L 155,823 L 156,822 L 159,822 L 160,821 L 163,821 L 164,820 L 184,820 L 185,821 L 188,821 L 189,822 L 190,822 L 191,823 L 192,823 L 195,826 L 194,827 L 194,828 L 192,830 L 191,830 L 190,831 L 188,831 L 187,832 L 182,832 L 181,833 L 180,833 L 179,832 L 175,832 L 174,833 L 172,833 L 171,832 L 162,832 L 161,831 L 158,831 L 157,830 L 156,830 L 154,828 L 153,828 Z" />
  <path d="M 88,357 L 90,359 L 89,360 L 89,401 L 88,402 L 87,401 L 87,399 L 86,398 L 86,396 L 87,395 L 87,358 Z" />
  <path d="M 139,340 L 140,341 L 140,346 L 139,347 L 137,347 L 139,347 L 140,348 L 140,355 L 139,356 L 138,355 L 136,355 L 135,356 L 133,354 L 134,353 L 134,351 L 133,350 L 133,349 L 135,347 L 135,346 L 137,344 L 138,345 L 137,344 L 137,343 L 138,342 L 138,341 Z" />
  <path d="M 295,259 L 296,260 L 296,283 L 295,284 L 294,283 L 294,260 Z" />
  <path d="M 316,488 L 316,486 L 317,485 L 317,482 L 318,481 L 319,482 L 319,483 L 321,483 L 322,482 L 325,485 L 320,490 L 319,490 L 318,489 L 318,488 L 317,489 Z" />
  <path d="M 295,291 L 296,292 L 296,307 L 295,308 L 294,307 L 294,292 Z" />
  </g>
</svg>